{
    "asset" : {
        "generator" : "Khronos glTF Blender I/O v1.5.17",
        "version" : "2.0"
    },
    "scene" : 0,
    "scenes" : [
        {
            "name" : "Scene",
            "nodes" : [
                0
            ]
        }
    ],
    "nodes" : [
        {
            "mesh" : 0,
            "name" : "Bridge",
            "rotation" : [
                0,
                0.29740259051322937,
                0,
                0.9547522664070129
            ],
            "scale" : [
                0.06648402661085129,
                0.08272277563810349,
                0.04961121454834938
            ],
            "translation" : [
                -2.9242401123046875,
                -0.33388084173202515,
                4.768544673919678
            ]
        }
    ],
    "materials" : [
        {
            "doubleSided" : true,
            "name" : "Bake",
            "pbrMetallicRoughness" : {
                "baseColorTexture" : {
                    "index" : 0
                },
                "metallicFactor" : 0,
                "roughnessFactor" : 0.5
            }
        }
    ],
    "meshes" : [
        {
            "name" : "Plane",
            "primitives" : [
                {
                    "attributes" : {
                        "POSITION" : 0,
                        "NORMAL" : 1,
                        "TEXCOORD_0" : 2
                    },
                    "indices" : 3,
                    "material" : 0
                }
            ]
        }
    ],
    "textures" : [
        {
            "sampler" : 0,
            "source" : 0
        }
    ],
    "images" : [
        {
            "mimeType" : "image/jpeg",
            "name" : "Bridge",
            "uri" : "Bridge.jpg"
        }
    ],
    "accessors" : [
        {
            "bufferView" : 0,
            "componentType" : 5126,
            "count" : 20060,
            "max" : [
                208.7974090576172,
                4.197849273681641,
                10.625276565551758
            ],
            "min" : [
                -26.37537384033203,
                -8.93929672241211,
                -165.04429626464844
            ],
            "type" : "VEC3"
        },
        {
            "bufferView" : 1,
            "componentType" : 5126,
            "count" : 20060,
            "type" : "VEC3"
        },
        {
            "bufferView" : 2,
            "componentType" : 5126,
            "count" : 20060,
            "type" : "VEC2"
        },
        {
            "bufferView" : 3,
            "componentType" : 5123,
            "count" : 33390,
            "type" : "SCALAR"
        }
    ],
    "bufferViews" : [
        {
            "buffer" : 0,
            "byteLength" : 240720,
            "byteOffset" : 0
        },
        {
            "buffer" : 0,
            "byteLength" : 240720,
            "byteOffset" : 240720
        },
        {
            "buffer" : 0,
            "byteLength" : 160480,
            "byteOffset" : 481440
        },
        {
            "buffer" : 0,
            "byteLength" : 66780,
            "byteOffset" : 641920
        }
    ],
    "samplers" : [
        {
            "magFilter" : 9729,
            "minFilter" : 9987
        }
    ],
    "buffers" : [
        {
            "byteLength" : 708700,
            "uri" : "Bridge.bin"
        }
    ]
}
