{
    "asset" : {
        "generator" : "Khronos glTF Blender I/O v1.5.17",
        "version" : "2.0"
    },
    "scene" : 0,
    "scenes" : [
        {
            "name" : "Scene",
            "nodes" : [
                0
            ]
        }
    ],
    "nodes" : [
        {
            "mesh" : 0,
            "name" : "Building_A",
            "rotation" : [
                0,
                -0.6021267771720886,
                0,
                0.7984006404876709
            ],
            "scale" : [
                0.827258288860321,
                0.6292999386787415,
                0.827258288860321
            ],
            "translation" : [
                2.059138536453247,
                0.5582703351974487,
                -6.265275955200195
            ]
        }
    ],
    "materials" : [
        {
            "doubleSided" : true,
            "name" : "Building_A",
            "pbrMetallicRoughness" : {
                "baseColorTexture" : {
                    "index" : 0
                },
                "metallicFactor" : 0,
                "roughnessFactor" : 0.5
            }
        }
    ],
    "meshes" : [
        {
            "name" : "Plane.006",
            "primitives" : [
                {
                    "attributes" : {
                        "POSITION" : 0,
                        "NORMAL" : 1,
                        "TEXCOORD_0" : 2
                    },
                    "indices" : 3,
                    "material" : 0
                }
            ]
        }
    ],
    "textures" : [
        {
            "sampler" : 0,
            "source" : 0
        }
    ],
    "images" : [
        {
            "mimeType" : "image/jpeg",
            "name" : "building_01_A",
            "uri" : "building_01_A.jpg"
        }
    ],
    "accessors" : [
        {
            "bufferView" : 0,
            "componentType" : 5126,
            "count" : 1281,
            "max" : [
                4.230720043182373,
                0.8092526793479919,
                1.9736460447311401
            ],
            "min" : [
                -0.5264481902122498,
                -2.899628162384033,
                -6.366416931152344
            ],
            "type" : "VEC3"
        },
        {
            "bufferView" : 1,
            "componentType" : 5126,
            "count" : 1281,
            "type" : "VEC3"
        },
        {
            "bufferView" : 2,
            "componentType" : 5126,
            "count" : 1281,
            "type" : "VEC2"
        },
        {
            "bufferView" : 3,
            "componentType" : 5123,
            "count" : 1890,
            "type" : "SCALAR"
        }
    ],
    "bufferViews" : [
        {
            "buffer" : 0,
            "byteLength" : 15372,
            "byteOffset" : 0
        },
        {
            "buffer" : 0,
            "byteLength" : 15372,
            "byteOffset" : 15372
        },
        {
            "buffer" : 0,
            "byteLength" : 10248,
            "byteOffset" : 30744
        },
        {
            "buffer" : 0,
            "byteLength" : 3780,
            "byteOffset" : 40992
        }
    ],
    "samplers" : [
        {
            "magFilter" : 9729,
            "minFilter" : 9987
        }
    ],
    "buffers" : [
        {
            "byteLength" : 44772,
            "uri" : "Building_A.bin"
        }
    ]
}
