{
    "asset" : {
        "generator" : "Khronos glTF Blender I/O v1.1.45",
        "version" : "2.0"
    },
    "scene" : 0,
    "scenes" : [
        {
            "name" : "Scene",
            "nodes" : [
                0,
                1,
                2,
                3,
                4,
                5
            ]
        }
    ],
    "nodes" : [
        {
            "mesh" : 0,
            "name" : "Hologram_security",
            "scale" : [
                0.48766201734542847,
                0.48766201734542847,
                0.48766201734542847
            ],
            "translation" : [
                4.2587995529174805,
                1.565798044204712,
                -4.2996673583984375
            ]
        },
        {
            "mesh" : 1,
            "name" : "Hologram_data",
            "scale" : [
                0.48766201734542847,
                0.48766201734542847,
                0.48766201734542847
            ],
            "translation" : [
                -4.575528621673584,
                2.1042110919952393,
                -3.5167887210845947
            ]
        },
        {
            "mesh" : 2,
            "name" : "Hologram_dataTwo",
            "scale" : [
                0.48766201734542847,
                0.48766201734542847,
                0.48766201734542847
            ],
            "translation" : [
                -1.7825310230255127,
                1.7307662963867188,
                -6.7998881340026855
            ]
        },
        {
            "mesh" : 3,
            "name" : "Hologram_settings",
            "scale" : [
                0.48766201734542847,
                0.48766201734542847,
                0.48766201734542847
            ],
            "translation" : [
                1.4543657302856445,
                1.605155110359192,
                -4.63866662979126
            ]
        },
        {
            "mesh" : 4,
            "name" : "Hologram_world",
            "scale" : [
                0.48766201734542847,
                0.48766201734542847,
                0.48766201734542847
            ],
            "translation" : [
                2.6587295532226562,
                2.5448150634765625,
                -2.889984130859375
            ]
        },
        {
            "mesh" : 5,
            "name" : "Hologram_alfanar",
            "scale" : [
                0.48766201734542847,
                0.48766201734542847,
                0.48766201734542847
            ],
            "translation" : [
                -2.02830171585083,
                0.4132635295391083,
                0.1774459332227707
            ]
        }
    ],
    "materials" : [
        {
            "doubleSided" : true,
            "emissiveFactor" : [
                0,
                0,
                0
            ],
            "name" : "Material",
            "pbrMetallicRoughness" : {
                "baseColorFactor" : [
                    0.800000011920929,
                    0.800000011920929,
                    0.800000011920929,
                    1
                ],
                "metallicFactor" : 0,
                "roughnessFactor" : 0.5
            }
        }
    ],
    "meshes" : [
        {
            "name" : "Hologram_security",
            "primitives" : [
                {
                    "attributes" : {
                        "POSITION" : 0,
                        "NORMAL" : 1,
                        "TEXCOORD_0" : 2
                    },
                    "indices" : 3,
                    "material" : 0
                }
            ]
        },
        {
            "name" : "Hologram_data",
            "primitives" : [
                {
                    "attributes" : {
                        "POSITION" : 4,
                        "NORMAL" : 5,
                        "TEXCOORD_0" : 6
                    },
                    "indices" : 7,
                    "material" : 0
                }
            ]
        },
        {
            "name" : "Hologram_dataTwo",
            "primitives" : [
                {
                    "attributes" : {
                        "POSITION" : 8,
                        "NORMAL" : 9,
                        "TEXCOORD_0" : 10
                    },
                    "indices" : 11,
                    "material" : 0
                }
            ]
        },
        {
            "name" : "Hologram_settings",
            "primitives" : [
                {
                    "attributes" : {
                        "POSITION" : 12,
                        "NORMAL" : 13,
                        "TEXCOORD_0" : 14
                    },
                    "indices" : 15,
                    "material" : 0
                }
            ]
        },
        {
            "name" : "Hologram_world",
            "primitives" : [
                {
                    "attributes" : {
                        "POSITION" : 16,
                        "NORMAL" : 17,
                        "TEXCOORD_0" : 18
                    },
                    "indices" : 19,
                    "material" : 0
                }
            ]
        },
        {
            "name" : "Hologram_alfanar",
            "primitives" : [
                {
                    "attributes" : {
                        "POSITION" : 20,
                        "NORMAL" : 21,
                        "TEXCOORD_0" : 22
                    },
                    "indices" : 23,
                    "material" : 0
                }
            ]
        }
    ],
    "accessors" : [
        {
            "bufferView" : 0,
            "componentType" : 5126,
            "count" : 128,
            "max" : [
                1.1459789276123047,
                0.5789159536361694,
                1.145978331565857
            ],
            "min" : [
                -1.1459789276123047,
                -1.0946698188781738,
                -1.1459788084030151
            ],
            "type" : "VEC3"
        },
        {
            "bufferView" : 1,
            "componentType" : 5126,
            "count" : 128,
            "type" : "VEC3"
        },
        {
            "bufferView" : 2,
            "componentType" : 5126,
            "count" : 128,
            "type" : "VEC2"
        },
        {
            "bufferView" : 3,
            "componentType" : 5123,
            "count" : 192,
            "type" : "SCALAR"
        },
        {
            "bufferView" : 4,
            "componentType" : 5126,
            "count" : 128,
            "max" : [
                1.4357051849365234,
                0.5689221024513245,
                1.4357044696807861
            ],
            "min" : [
                -1.4357051849365234,
                -1.7231264114379883,
                -1.4357049465179443
            ],
            "type" : "VEC3"
        },
        {
            "bufferView" : 5,
            "componentType" : 5126,
            "count" : 128,
            "type" : "VEC3"
        },
        {
            "bufferView" : 6,
            "componentType" : 5126,
            "count" : 128,
            "type" : "VEC2"
        },
        {
            "bufferView" : 7,
            "componentType" : 5123,
            "count" : 192,
            "type" : "SCALAR"
        },
        {
            "bufferView" : 8,
            "componentType" : 5126,
            "count" : 128,
            "max" : [
                1.5445607900619507,
                0.7507457137107849,
                1.5445599555969238
            ],
            "min" : [
                -1.5445600748062134,
                -1.734273910522461,
                -1.5445590019226074
            ],
            "type" : "VEC3"
        },
        {
            "bufferView" : 9,
            "componentType" : 5126,
            "count" : 128,
            "type" : "VEC3"
        },
        {
            "bufferView" : 10,
            "componentType" : 5126,
            "count" : 128,
            "type" : "VEC2"
        },
        {
            "bufferView" : 11,
            "componentType" : 5123,
            "count" : 192,
            "type" : "SCALAR"
        },
        {
            "bufferView" : 12,
            "componentType" : 5126,
            "count" : 128,
            "max" : [
                1.5445609092712402,
                0.9469507336616516,
                1.5445595979690552
            ],
            "min" : [
                -1.5445599555969238,
                -1.4766955375671387,
                -1.5445599555969238
            ],
            "type" : "VEC3"
        },
        {
            "bufferView" : 13,
            "componentType" : 5126,
            "count" : 128,
            "type" : "VEC3"
        },
        {
            "bufferView" : 14,
            "componentType" : 5126,
            "count" : 128,
            "type" : "VEC2"
        },
        {
            "bufferView" : 15,
            "componentType" : 5123,
            "count" : 192,
            "type" : "SCALAR"
        },
        {
            "bufferView" : 16,
            "componentType" : 5126,
            "count" : 128,
            "max" : [
                1.32878839969635,
                0.3869122862815857,
                1.3287886381149292
            ],
            "min" : [
                -1.3287901878356934,
                -1.1717973947525024,
                -1.328789472579956
            ],
            "type" : "VEC3"
        },
        {
            "bufferView" : 17,
            "componentType" : 5126,
            "count" : 128,
            "type" : "VEC3"
        },
        {
            "bufferView" : 18,
            "componentType" : 5126,
            "count" : 128,
            "type" : "VEC2"
        },
        {
            "bufferView" : 19,
            "componentType" : 5123,
            "count" : 192,
            "type" : "SCALAR"
        },
        {
            "bufferView" : 20,
            "componentType" : 5126,
            "count" : 128,
            "max" : [
                1.32878839969635,
                0.7827223539352417,
                1.3287886381149292
            ],
            "min" : [
                -1.3287901878356934,
                -1.1717973947525024,
                -1.328789472579956
            ],
            "type" : "VEC3"
        },
        {
            "bufferView" : 21,
            "componentType" : 5126,
            "count" : 128,
            "type" : "VEC3"
        },
        {
            "bufferView" : 22,
            "componentType" : 5126,
            "count" : 128,
            "type" : "VEC2"
        },
        {
            "bufferView" : 23,
            "componentType" : 5123,
            "count" : 192,
            "type" : "SCALAR"
        }
    ],
    "bufferViews" : [
        {
            "buffer" : 0,
            "byteLength" : 1536,
            "byteOffset" : 0
        },
        {
            "buffer" : 0,
            "byteLength" : 1536,
            "byteOffset" : 1536
        },
        {
            "buffer" : 0,
            "byteLength" : 1024,
            "byteOffset" : 3072
        },
        {
            "buffer" : 0,
            "byteLength" : 384,
            "byteOffset" : 4096
        },
        {
            "buffer" : 0,
            "byteLength" : 1536,
            "byteOffset" : 4480
        },
        {
            "buffer" : 0,
            "byteLength" : 1536,
            "byteOffset" : 6016
        },
        {
            "buffer" : 0,
            "byteLength" : 1024,
            "byteOffset" : 7552
        },
        {
            "buffer" : 0,
            "byteLength" : 384,
            "byteOffset" : 8576
        },
        {
            "buffer" : 0,
            "byteLength" : 1536,
            "byteOffset" : 8960
        },
        {
            "buffer" : 0,
            "byteLength" : 1536,
            "byteOffset" : 10496
        },
        {
            "buffer" : 0,
            "byteLength" : 1024,
            "byteOffset" : 12032
        },
        {
            "buffer" : 0,
            "byteLength" : 384,
            "byteOffset" : 13056
        },
        {
            "buffer" : 0,
            "byteLength" : 1536,
            "byteOffset" : 13440
        },
        {
            "buffer" : 0,
            "byteLength" : 1536,
            "byteOffset" : 14976
        },
        {
            "buffer" : 0,
            "byteLength" : 1024,
            "byteOffset" : 16512
        },
        {
            "buffer" : 0,
            "byteLength" : 384,
            "byteOffset" : 17536
        },
        {
            "buffer" : 0,
            "byteLength" : 1536,
            "byteOffset" : 17920
        },
        {
            "buffer" : 0,
            "byteLength" : 1536,
            "byteOffset" : 19456
        },
        {
            "buffer" : 0,
            "byteLength" : 1024,
            "byteOffset" : 20992
        },
        {
            "buffer" : 0,
            "byteLength" : 384,
            "byteOffset" : 22016
        },
        {
            "buffer" : 0,
            "byteLength" : 1536,
            "byteOffset" : 22400
        },
        {
            "buffer" : 0,
            "byteLength" : 1536,
            "byteOffset" : 23936
        },
        {
            "buffer" : 0,
            "byteLength" : 1024,
            "byteOffset" : 25472
        },
        {
            "buffer" : 0,
            "byteLength" : 384,
            "byteOffset" : 26496
        }
    ],
    "buffers" : [
        {
            "byteLength" : 26880,
            "uri" : "Hologram.bin"
        }
    ]
}
